<mxfile host="app.diagrams.net" modified="2021-12-23T05:46:17.527Z" agent="5.0 (Macintosh)" etag="YMMO5oUBx7rC5o11dCLk" version="16.0.0" type="github">
  <diagram id="Bcqtuh_A2lHMvYJcFtwO" name="Page-1">
    <mxGraphModel dx="1426" dy="792" grid="1" gridSize="10" guides="1" tooltips="1" connect="1" arrows="1" fold="1" page="1" pageScale="1" pageWidth="827" pageHeight="1169" math="0" shadow="0">
      <root>
        <mxCell id="0" />
        <mxCell id="1" parent="0" />
        <mxCell id="nHjAEe9QUG4dYRmGJywx-1" value="Client" style="ellipse;whiteSpace=wrap;html=1;aspect=fixed;fontSize=14;" vertex="1" parent="1">
          <mxGeometry x="40" y="80" width="60" height="60" as="geometry" />
        </mxCell>
        <mxCell id="nHjAEe9QUG4dYRmGJywx-2" value="" style="rounded=1;whiteSpace=wrap;html=1;fontSize=14;fillColor=#CCCCCC;" vertex="1" parent="1">
          <mxGeometry x="190" y="30" width="330" height="180" as="geometry" />
        </mxCell>
        <mxCell id="nHjAEe9QUG4dYRmGJywx-3" value="一致性模块" style="rounded=1;whiteSpace=wrap;html=1;fontSize=14;fillColor=#FFFFFF;" vertex="1" parent="1">
          <mxGeometry x="230" y="50" width="90" height="50" as="geometry" />
        </mxCell>
        <mxCell id="nHjAEe9QUG4dYRmGJywx-4" value="指令日志" style="rounded=1;whiteSpace=wrap;html=1;fontSize=14;fillColor=#FFFFFF;" vertex="1" parent="1">
          <mxGeometry x="230" y="150" width="240" height="50" as="geometry" />
        </mxCell>
        <mxCell id="nHjAEe9QUG4dYRmGJywx-5" value="状态机" style="ellipse;whiteSpace=wrap;html=1;aspect=fixed;fontSize=14;fillColor=#FFFFFF;" vertex="1" parent="1">
          <mxGeometry x="409" y="40" width="70" height="70" as="geometry" />
        </mxCell>
        <mxCell id="nHjAEe9QUG4dYRmGJywx-6" value="1" style="endArrow=classic;html=1;rounded=0;fontSize=15;exitX=1;exitY=0.5;exitDx=0;exitDy=0;entryX=0;entryY=0.5;entryDx=0;entryDy=0;strokeWidth=2;fontColor=#FF3333;fontStyle=1" edge="1" parent="1" source="nHjAEe9QUG4dYRmGJywx-1" target="nHjAEe9QUG4dYRmGJywx-3">
          <mxGeometry width="50" height="50" relative="1" as="geometry">
            <mxPoint x="60" y="270" as="sourcePoint" />
            <mxPoint x="110" y="220" as="targetPoint" />
          </mxGeometry>
        </mxCell>
        <mxCell id="nHjAEe9QUG4dYRmGJywx-7" value="2" style="endArrow=classic;html=1;rounded=0;fontSize=15;fontColor=#FF3333;strokeWidth=2;exitX=0.5;exitY=1;exitDx=0;exitDy=0;" edge="1" parent="1" source="nHjAEe9QUG4dYRmGJywx-3">
          <mxGeometry width="50" height="50" relative="1" as="geometry">
            <mxPoint x="260" y="380" as="sourcePoint" />
            <mxPoint x="290" y="150" as="targetPoint" />
          </mxGeometry>
        </mxCell>
        <mxCell id="nHjAEe9QUG4dYRmGJywx-8" value="" style="endArrow=classic;html=1;rounded=0;fontSize=15;fontColor=#FF3333;strokeWidth=2;exitX=0.75;exitY=0;exitDx=0;exitDy=0;entryX=0.5;entryY=1;entryDx=0;entryDy=0;" edge="1" parent="1" source="nHjAEe9QUG4dYRmGJywx-4" target="nHjAEe9QUG4dYRmGJywx-5">
          <mxGeometry width="50" height="50" relative="1" as="geometry">
            <mxPoint x="320" y="440" as="sourcePoint" />
            <mxPoint x="370" y="390" as="targetPoint" />
          </mxGeometry>
        </mxCell>
        <mxCell id="nHjAEe9QUG4dYRmGJywx-9" value="3" style="edgeLabel;html=1;align=center;verticalAlign=middle;resizable=0;points=[];fontSize=15;fontColor=#FF3333;" vertex="1" connectable="0" parent="nHjAEe9QUG4dYRmGJywx-8">
          <mxGeometry x="-0.103" y="2" relative="1" as="geometry">
            <mxPoint y="1" as="offset" />
          </mxGeometry>
        </mxCell>
        <mxCell id="nHjAEe9QUG4dYRmGJywx-10" value="复制单元" style="rounded=0;whiteSpace=wrap;html=1;fontSize=13;fontColor=#FFFFFF;fillColor=#333333;" vertex="1" parent="1">
          <mxGeometry x="150" y="10" width="70" height="40" as="geometry" />
        </mxCell>
        <mxCell id="nHjAEe9QUG4dYRmGJywx-11" value="" style="rounded=1;whiteSpace=wrap;html=1;fontSize=14;fillColor=#CCCCCC;" vertex="1" parent="1">
          <mxGeometry x="190" y="260" width="330" height="180" as="geometry" />
        </mxCell>
        <mxCell id="nHjAEe9QUG4dYRmGJywx-12" value="一致性模块" style="rounded=1;whiteSpace=wrap;html=1;fontSize=14;fillColor=#FFFFFF;" vertex="1" parent="1">
          <mxGeometry x="230" y="280" width="90" height="50" as="geometry" />
        </mxCell>
        <mxCell id="nHjAEe9QUG4dYRmGJywx-13" value="指令日志" style="rounded=1;whiteSpace=wrap;html=1;fontSize=14;fillColor=#FFFFFF;" vertex="1" parent="1">
          <mxGeometry x="230" y="380" width="240" height="50" as="geometry" />
        </mxCell>
        <mxCell id="nHjAEe9QUG4dYRmGJywx-14" value="状态机" style="ellipse;whiteSpace=wrap;html=1;aspect=fixed;fontSize=14;fillColor=#FFFFFF;" vertex="1" parent="1">
          <mxGeometry x="409" y="270" width="70" height="70" as="geometry" />
        </mxCell>
        <mxCell id="nHjAEe9QUG4dYRmGJywx-15" value="2" style="endArrow=classic;html=1;rounded=0;fontSize=15;fontColor=#FF3333;strokeWidth=2;exitX=0.5;exitY=1;exitDx=0;exitDy=0;" edge="1" parent="1" source="nHjAEe9QUG4dYRmGJywx-12">
          <mxGeometry width="50" height="50" relative="1" as="geometry">
            <mxPoint x="260" y="610" as="sourcePoint" />
            <mxPoint x="290" y="380" as="targetPoint" />
          </mxGeometry>
        </mxCell>
        <mxCell id="nHjAEe9QUG4dYRmGJywx-16" value="" style="endArrow=classic;html=1;rounded=0;fontSize=15;fontColor=#FF3333;strokeWidth=2;exitX=0.75;exitY=0;exitDx=0;exitDy=0;entryX=0.5;entryY=1;entryDx=0;entryDy=0;" edge="1" parent="1" source="nHjAEe9QUG4dYRmGJywx-13" target="nHjAEe9QUG4dYRmGJywx-14">
          <mxGeometry width="50" height="50" relative="1" as="geometry">
            <mxPoint x="320" y="670" as="sourcePoint" />
            <mxPoint x="370" y="620" as="targetPoint" />
          </mxGeometry>
        </mxCell>
        <mxCell id="nHjAEe9QUG4dYRmGJywx-17" value="3" style="edgeLabel;html=1;align=center;verticalAlign=middle;resizable=0;points=[];fontSize=15;fontColor=#FF3333;" vertex="1" connectable="0" parent="nHjAEe9QUG4dYRmGJywx-16">
          <mxGeometry x="-0.103" y="2" relative="1" as="geometry">
            <mxPoint y="1" as="offset" />
          </mxGeometry>
        </mxCell>
        <mxCell id="nHjAEe9QUG4dYRmGJywx-18" value="复制单元" style="rounded=0;whiteSpace=wrap;html=1;fontSize=13;fontColor=#FFFFFF;fillColor=#333333;" vertex="1" parent="1">
          <mxGeometry x="150" y="240" width="70" height="40" as="geometry" />
        </mxCell>
        <mxCell id="nHjAEe9QUG4dYRmGJywx-20" value="" style="endArrow=classic;html=1;rounded=0;fontSize=13;fontColor=#FFFFFF;strokeWidth=2;entryX=0;entryY=0.5;entryDx=0;entryDy=0;" edge="1" parent="1" target="nHjAEe9QUG4dYRmGJywx-12">
          <mxGeometry width="50" height="50" relative="1" as="geometry">
            <mxPoint x="230" y="80" as="sourcePoint" />
            <mxPoint x="90" y="230" as="targetPoint" />
            <Array as="points">
              <mxPoint x="20" y="270" />
            </Array>
          </mxGeometry>
        </mxCell>
        <mxCell id="nHjAEe9QUG4dYRmGJywx-21" value="1" style="edgeLabel;html=1;align=center;verticalAlign=middle;resizable=0;points=[];fontSize=15;fontColor=#FF3333;fontStyle=1" vertex="1" connectable="0" parent="nHjAEe9QUG4dYRmGJywx-20">
          <mxGeometry x="0.3697" y="1" relative="1" as="geometry">
            <mxPoint as="offset" />
          </mxGeometry>
        </mxCell>
      </root>
    </mxGraphModel>
  </diagram>
</mxfile>
